<svg xmlns="http://www.w3.org/2000/svg" viewBox="0 0 512 512">
  <defs>
    <linearGradient id="bg" x1="0" x2="1" y1="0" y2="1">
      <stop offset="0%" stop-color="#1d4ed8"/>
      <stop offset="100%" stop-color="#0f172a"/>
    </linearGradient>
    <linearGradient id="wheel" x1="0" x2="1" y1="0" y2="1">
      <stop offset="0%" stop-color="#f59e0b"/>
      <stop offset="100%" stop-color="#fb7185"/>
    </linearGradient>
  </defs>
  <rect width="512" height="512" rx="112" fill="url(#bg)"/>
  <circle cx="256" cy="270" r="150" fill="#0b1220" stroke="#ffffff22" stroke-width="10"/>
  <g transform="translate(256 270)">
    <path d="M0 0 L0 -138 A138 138 0 0 1 97 -98 Z" fill="#f59e0b"/>
    <path d="M0 0 L97 -98 A138 138 0 0 1 138 0 Z" fill="#22c55e"/>
    <path d="M0 0 L138 0 A138 138 0 0 1 98 98 Z" fill="#3b82f6"/>
    <path d="M0 0 L98 98 A138 138 0 0 1 0 138 Z" fill="#8b5cf6"/>
    <path d="M0 0 L0 138 A138 138 0 0 1 -98 98 Z" fill="#ec4899"/>
    <path d="M0 0 L-98 98 A138 138 0 0 1 -138 0 Z" fill="#f97316"/>
    <path d="M0 0 L-138 0 A138 138 0 0 1 -98 -98 Z" fill="#ef4444"/>
    <path d="M0 0 L-98 -98 A138 138 0 0 1 0 -138 Z" fill="#14b8a6"/>
    <circle r="26" fill="#fff"/>
    <circle r="10" fill="#0f172a"/>
  </g>
  <path d="M430 270 l38 -24 v48 z" fill="#fff"/>
  <rect x="96" y="72" width="228" height="44" rx="18" fill="#ffffff14"/>
  <text x="114" y="102" font-family="Inter, Arial, sans-serif" font-size="30" font-weight="800" fill="#eff6ff">RuletaSuerte</text>
</svg>
